:SAMPLES-PER-SECOND 30
:FULLY-SPECIFIED
:DEGREES
694
root  -45.8418 34.2569 -3.37589 -176.344 51.5532 175.165
RightUpLeg  -20.3235 -18.9978 -11.3134
RightLeg  49.9328 -6.31576 -6.59978
RightFoot  9.01457 0.141945 -1.21865
RightToes  -37.3964 -0.198025 -0.299947
Spine  -0.466979 1.0278 -1.15262
Spine1  -0.83122 2.16574 -1.63791
HEad  -52.2456 28.1081 4.97267
LeftShoulder1  -1.94126e-019 -3.10601e-018 -2.51263e-017
LeftArm  -25.2138 33.3652 -77.061
LeftForeArm  34.9348 -7.98246 -1.38872
LeftHand  -0.490032 -0.754113 9.38302
RightShoulder  -4.96962e-017 0 -2.36833e-017
RightArm  -38.6022 -29.8071 74.0976
RightForeArm  64.0881 9.7139 1.52174
RightHand  -0.320384 -1.86708 -10.3685
LeftUpLeg  -12.1535 3.33636 -9.23386
LeftLeg  16.845 14.0656 3.25074
LeftFoot  -4.11818 -0.0373408 -0.877014
LeftToes  -5.4264 1.83942e-006 5.51297e-008
695
root  -45.6496 34.3235 -3.40277 -176.137 54.0578 175.53
RightUpLeg  -21.3885 -18.3993 -11.0576
RightLeg  47.3021 -4.6553 -4.46125
RightFoot  8.05325 0.0889393 -0.697153
RightToes  -36.6327 -0.19867 -0.300467
Spine  -0.494044 1.13809 -1.00243
Spine1  -0.950688 2.37714 -1.35191
HEad  -51.7144 29.9381 4.98106
LeftShoulder1  -1.94126e-019 -3.10601e-018 -2.51263e-017
LeftArm  -24.0274 31.6731 -77.7467
LeftForeArm  34.9104 -8.29559 -1.44436
LeftHand  -0.493694 -0.893748 9.25354
RightShoulder  -4.96962e-017 0 -2.36833e-017
RightArm  -36.2112 -27.5903 74.1529
RightForeArm  62.5818 10.9197 1.53095
RightHand  -0.333817 -1.56813 -10.0004
LeftUpLeg  -11.4523 4.274 -8.84059
LeftLeg  16.0453 15.5633 3.36353
LeftFoot  -4.06044 -0.040592 -0.983496
LeftToes  -4.88255 1.83942e-006 5.51297e-008
696
root  -45.454 34.3969 -3.40036 -175.861 56.7059 175.882
RightUpLeg  -22.1919 -17.9731 -10.5935
RightLeg  43.0518 -3.82161 -3.15949
RightFoot  7.35212 0.0638985 -0.436996
RightToes  -36.6736 -0.196648 -0.298887
Spine  -0.533988 1.2226 -0.862937
Spine1  -1.08436 2.53492 -1.07683
HEad  -51.7811 31.9651 4.82737
LeftShoulder1  -1.94126e-019 -3.10601e-018 -2.51263e-017
LeftArm  -22.1666 29.8444 -78.2538
LeftForeArm  34.5301 -8.99046 -1.56924
LeftHand  -0.480377 -0.996166 8.8711
RightShoulder  -4.96962e-017 0 -2.36833e-017
RightArm  -32.3666 -25.2662 74.4934
RightForeArm  59.9037 12.6694 1.39996
RightHand  -0.344948 -1.31669 -9.72889
LeftUpLeg  -10.7283 5.55024 -8.45704
LeftLeg  15.0138 16.9015 3.33232
LeftFoot  -3.8578 -0.0400818 -1.02853
LeftToes  -4.82895 1.83942e-006 5.51297e-008
697
root  -45.2225 34.4848 -3.37538 -175.277 59.0659 176.474
RightUpLeg  -22.3402 -18.2128 -9.7558
RightLeg  36.84 -3.21829 -2.11879
RightFoot  7.30731 0.0546788 -0.304424
RightToes  -36.4564 -0.193021 -0.296016
Spine  -0.63842 1.17513 -0.674299
Spine1  -1.32092 2.42766 -0.689614
HEad  -52.045 33.8469 4.53709
LeftShoulder1  -1.94126e-019 -3.10601e-018 -2.51263e-017
LeftArm  -20.0042 27.9464 -78.5367
LeftForeArm  34.3941 -9.86084 -1.72271
LeftHand  -0.478747 -1.25898 8.51259
RightShoulder  -4.96962e-017 0 -2.36833e-017
RightArm  -27.6967 -23.2076 74.9657
RightForeArm  56.6972 14.9432 1.12202
RightHand  -0.351814 -1.14922 -9.55134
LeftUpLeg  -9.924 6.57252 -7.92446
LeftLeg  13.7464 18.2326 3.17664
LeftFoot  -3.5397 -0.0366027 -1.02297
LeftToes  -4.81789 1.83942e-006 5.51297e-008
698
root  -44.9422 34.5853 -3.32525 -174.418 61.196 177.346
RightUpLeg  -21.603 -18.8258 -8.48667
RightLeg  28.5416 -2.79421 -1.30195
RightFoot  8.38319 0.0607875 -0.280175
RightToes  -36.1988 -0.188852 -0.292658
Spine  -0.77177 1.05644 -0.46449
Spine1  -1.59067 2.17412 -0.251703
HEad  -52.3132 35.3772 4.39249
LeftShoulder1  -1.94126e-019 -3.10601e-018 -2.51263e-017
LeftArm  -16.888 26.0099 -78.4325
LeftForeArm  34.0468 -11.5011 -1.99661
LeftHand  -0.475633 -1.3136 8.39356
RightShoulder  -4.96962e-017 0 -2.36833e-017
RightArm  -23.9382 -21.4585 75.5485
RightForeArm  54.8679 17.3361 1.11988
RightHand  -0.394106 -0.748616 -9.82902
LeftUpLeg  -8.92195 7.6519 -7.23041
LeftLeg  12.1521 19.2751 2.81272
LeftFoot  -3.02365 -0.0283671 -0.913225
LeftToes  -5.28884 1.83942e-006 5.51297e-008
699
root  -44.64 34.6658 -3.22789 -173.24 62.8754 178.417
RightUpLeg  -20.927 -21.4082 -6.34102
RightLeg  20.3867 -3.58691 -1.07739
RightFoot  11.4007 0.11299 -0.577075
RightToes  -35.4203 -0.182971 -0.287818
Spine  -0.97451 0.86955 -0.27013
Spine1  -1.9876 1.79529 0.160017
HEad  -52.4813 36.265 4.28716
LeftShoulder1  -1.94126e-019 -3.10601e-018 -2.51263e-017
LeftArm  -13.5527 24.103 -77.8738
LeftForeArm  34.2295 -14.2621 -2.46415
LeftHand  -0.482896 -1.44635 8.36429
RightShoulder  -4.96962e-017 0 -2.36833e-017
RightArm  -21.0453 -20.5598 76.1638
RightForeArm  53.8796 21.328 1.89341
RightHand  -0.423159 -0.454915 -9.95751
LeftUpLeg  -8.23709 8.11766 -6.43095
LeftLeg  11.0088 20.5282 2.58021
LeftFoot  -2.58082 -0.0220674 -0.818062
LeftToes  -5.81234 1.83942e-006 5.51297e-008
700
root  -44.2858 34.7353 -3.08823 -171.584 64.1156 -179.97
RightUpLeg  -20.7477 -26.5185 -3.01156
RightLeg  14.6043 -5.16829 -0.994905
RightFoot  14.4714 0.217556 -1.14919
RightToes  -32.8966 -0.164368 -0.271585
Spine  -1.15619 0.690552 0.0148322
Spine1  -2.34859 1.45716 0.718776
HEad  -52.6521 36.41 4.104
LeftShoulder1  -1.94126e-019 -3.10601e-018 -2.51263e-017
LeftArm  -9.55501 21.843 -77.0971
LeftForeArm  34.6409 -16.7785 -2.8867
LeftHand  -0.472881 -1.55483 8.07444
RightShoulder  -4.96962e-017 0 -2.36833e-017
RightArm  -18.5449 -20.3112 76.6872
RightForeArm  53.5538 25.8458 2.78689
RightHand  -0.449543 -0.139678 -9.9731
LeftUpLeg  -7.63831 8.54026 -5.32725
LeftLeg  10.2494 21.3642 2.4003
LeftFoot  -2.18598 -0.0165502 -0.705891
LeftToes  -6.90336 1.83942e-006 5.51297e-008
701
root  -43.8915 34.7826 -2.90908 -170.301 65.0335 -178.544
RightUpLeg  -20.224 -31.3546 0.142761
RightLeg  11.2331 -6.67256 -0.880299
RightFoot  14.4378 0.263083 -1.50456
RightToes  -29.2741 -0.138954 -0.246889
Spine  -1.23589 0.512104 0.228374
Spine1  -2.50383 1.12312 1.13761
HEad  -53.1534 35.5885 3.80137
LeftShoulder1  -1.94126e-019 -3.10601e-018 -2.51263e-017
LeftArm  -5.61825 19.213 -76.0097
LeftForeArm  35.3014 -19.2273 -3.30516
LeftHand  -0.475546 -1.77177 7.88939
RightShoulder  -4.96962e-017 0 -2.36833e-017
RightArm  -16.6594 -20.253 77.3261
RightForeArm  53.6129 29.8217 3.61149
RightHand  -0.482976 0.296995 -9.9285
LeftUpLeg  -6.90622 9.1563 -4.19771
LeftLeg  9.75669 21.7475 2.25686
LeftFoot  -1.91213 -0.0129173 -0.612468
LeftToes  -8.02902 1.83942e-006 5.51297e-008
702
root  -43.506 34.7967 -2.74949 -169.927 65.841 -178.07
RightUpLeg  -19.1096 -33.1104 1.55493
RightLeg  9.6704 -6.53083 -0.681299
RightFoot  11.3915 0.168208 -1.11632
RightToes  -26.4615 -0.120329 -0.226636
Spine  -1.28243 0.362412 0.267385
Spine1  -2.59105 0.842092 1.2091
HEad  -53.8903 33.7905 3.29327
LeftShoulder1  -1.94126e-019 -3.10601e-018 -2.51263e-017
LeftArm  -2.53151 16.4921 -74.8827
LeftForeArm  35.6663 -21.6845 -3.73277
LeftHand  -0.478061 -1.52252 8.19674
RightShoulder  -4.96962e-017 0 -2.36833e-017
RightArm  -15.1323 -20.3264 77.9936
RightForeArm  54.2261 32.9842 4.28778
RightHand  -0.528275 0.77892 -10.0447
LeftUpLeg  -6.2754 9.70432 -3.5043
LeftLeg  9.62941 22.0341 2.23693
LeftFoot  -1.73032 -0.0107334 -0.549198
LeftToes  -9.23294 1.83942e-006 5.51297e-008
703
root  -43.1313 34.795 -2.58666 -169.476 66.323 -177.624
RightUpLeg  -17.9065 -32.1671 1.93552
RightLeg  8.44359 -6.78108 -0.561095
RightFoot  10.8516 0.158447 -1.09703
RightToes  -25.1898 -0.112239 -0.217183
Spine  -1.36217 0.197864 0.303201
Spine1  -2.74232 0.53503 1.27055
HEad  -54.7059 31.1331 2.38465
LeftShoulder1  -1.94126e-019 -3.10601e-018 -2.51263e-017
LeftArm  -0.834155 13.8735 -73.9266
LeftForeArm  35.7332 -23.8716 -4.11269
LeftHand  -0.479734 -1.56706 8.17562
RightShoulder  -4.96962e-017 0 -2.36833e-017
RightArm  -13.7078 -20.524 78.3861
RightForeArm  54.5245 35.1018 4.77053
RightHand  -0.552069 1.09753 -10.0023
LeftUpLeg  -6.11007 10.171 -2.80154
LeftLeg  10.2373 22.0073 2.46439
LeftFoot  -1.76897 -0.0112128 -0.564715
LeftToes  -10.597 1.83942e-006 5.51297e-008
704
root  -42.7382 34.7839 -2.4339 -169.071 66.6096 -177.147
RightUpLeg  -17.4438 -31.1604 2.045
RightLeg  8.84204 -7.31031 -0.655751
RightFoot  10.8941 0.169249 -1.20081
RightToes  -26.1403 -0.115881 -0.221448
Spine  -1.41085 0.0507861 0.401508
Spine1  -2.82612 0.260644 1.45836
HEad  -55.5128 27.7345 1.0728
LeftShoulder1  -1.94126e-019 -3.10601e-018 -2.51263e-017
LeftArm  -0.894297 11.4316 -73.5866
LeftForeArm  35.3718 -25.6303 -4.42724
LeftHand  -0.472818 -1.5887 8.03682
RightShoulder  -4.96962e-017 0 -2.36833e-017
RightArm  -12.4112 -20.6913 78.343
RightForeArm  54.7928 35.9523 4.96484
RightHand  -0.584183 1.31911 -10.2436
LeftUpLeg  -6.02394 10.5403 -2.05883
LeftLeg  11.2292 21.9118 2.82915
LeftFoot  -2.03092 -0.0147213 -0.668958
LeftToes  -11.213 1.83942e-006 5.51297e-008
705
root  -42.3171 34.775 -2.25269 -168.321 66.7395 -176.229
RightUpLeg  -17.1337 -29.7942 2.34518
RightLeg  9.89811 -8.44199 -0.913157
RightFoot  10.07 0.165138 -1.29439
RightToes  -26.3637 -0.119699 -0.225915
Spine  -1.42986 -0.0594207 0.59101
Spine1  -2.84444 0.0603501 1.82723
HEad  -56.4227 23.8742 -0.509591
LeftShoulder1  -1.94126e-019 -3.10601e-018 -2.51263e-017
LeftArm  -2.20294 9.34938 -73.8543
LeftForeArm  35.1652 -27.1322 -4.71484
LeftHand  -0.490495 -1.47791 8.4568
RightShoulder  -4.96962e-017 0 -2.36833e-017
RightArm  -11.2594 -20.7342 77.9258
RightForeArm  54.6523 35.5098 4.86442
RightHand  -0.585677 1.34791 -10.2278
LeftUpLeg  -6.00974 10.7308 -1.0419
LeftLeg  12.5605 21.8136 3.32049
LeftFoot  -2.2363 -0.0177995 -0.750369
LeftToes  -12.5976 1.83942e-006 5.51297e-008
706
root  -41.8742 34.766 -2.04943 -167.393 66.7838 -175.033
RightUpLeg  -16.4487 -27.99 2.76378
RightLeg  10.4386 -10.0962 -1.1862
RightFoot  9.2194 0.163166 -1.43504
RightToes  -25.2016 -0.112313 -0.217272
Spine  -1.39939 -0.148151 0.811954
Spine1  -2.76179 -0.0979783 2.25635
HEad  -56.9802 19.9347 -1.4556
LeftShoulder1  -1.94126e-019 -3.10601e-018 -2.51263e-017
LeftArm  -4.09116 7.81851 -74.519
LeftForeArm  34.4488 -28.7908 -5.01296
LeftHand  -0.506004 -1.35524 8.86795
RightShoulder  -4.96962e-017 0 -2.36833e-017
RightArm  -10.5217 -20.6126 77.3903
RightForeArm  54.6019 33.6837 4.43348
RightHand  -0.577782 1.30698 -10.1506
LeftUpLeg  -6.04812 10.7051 0.148717
LeftLeg  14.22 21.8531 3.95925
LeftFoot  -2.50454 -0.0224521 -0.865498
LeftToes  -13.6903 1.83942e-006 5.51297e-008
